<svg width="122" height="24" viewBox="0 0 122 24" fill="none" xmlns="http://www.w3.org/2000/svg">
  <g id="Logo">
    <g id="Vector">
      <path fill-rule="evenodd" clip-rule="evenodd"
        d="M4.42759 17.8217V6.05537C1.87624 9.11511 2.13115 12.1551 2.19159 15.7533V20.0534L2.17181 20.0743L0.125895 22.1207L0.120402 19.2232C0.108316 12.9568 -1.10363 7.32862 4.43309 2.99233C5.13121 2.44552 5.88816 1.97802 6.68996 1.59844V12.6673L8.67655 10.6834V0.865857C9.39103 0.672891 10.1219 0.546595 10.8598 0.488598V11.4072L6.68996 15.5746L4.42759 17.8217Z"
        fill="#1A3ED2" />
      <path fill-rule="evenodd" clip-rule="evenodd"
        d="M20.5928 19.1211C22.0431 17.2761 22.9151 15.0446 23.0991 12.7066H12.1608L10.0435 14.8189H15.7956L20.639 14.7092C20.3603 15.4695 19.9933 16.1945 19.5457 16.8697H7.9899L5.72972 19.1211L3.47723 21.377L1.42692 23.4245L4.32878 23.43C9.54686 23.4399 14.3276 24.2778 18.2832 21.388H10.7017C10.2907 21.3957 9.8732 21.3946 9.44907 21.388C8.47995 21.3748 7.47128 21.3397 6.41755 21.3496L8.64147 19.1211H20.5928Z"
        fill="#1A3ED2" />
      <path fill-rule="evenodd" clip-rule="evenodd"
        d="M20.8069 2.70924V10.9234H23.0692V0.451172H12.5771V2.70924H20.8069Z" fill="#1A3ED2" />
      <path fill-rule="evenodd" clip-rule="evenodd"
        d="M16.6032 6.90515H12.6421V4.62624H18.8864V10.8576H16.6032V6.90515Z" fill="#1A3ED2" />
      <path fill-rule="evenodd" clip-rule="evenodd"
        d="M12.5771 8.59406H14.9109V10.9234L12.5826 10.9179L12.5771 8.59406Z" fill="#1A3ED2" />
      <path
        d="M33.6149 15.5917C33.6149 16.0846 33.6991 16.5054 33.8674 16.854C34.0357 17.2026 34.2701 17.4912 34.5707 17.7196C34.8712 17.936 35.2139 18.0983 35.5986 18.2065C35.9953 18.3027 36.4221 18.3508 36.8789 18.3508C37.3718 18.3508 37.7926 18.2967 38.1413 18.1885C38.4899 18.0682 38.7724 17.918 38.9888 17.7376C39.2052 17.5573 39.3615 17.3529 39.4577 17.1245C39.5539 16.8841 39.602 16.6436 39.602 16.4032C39.602 15.9103 39.4877 15.5496 39.2593 15.3212C39.0429 15.0807 38.8025 14.9124 38.538 14.8162C38.0812 14.6479 37.5462 14.4916 36.933 14.3474C36.3319 14.1911 35.5866 13.9927 34.6969 13.7523C34.1439 13.608 33.681 13.4217 33.3084 13.1933C32.9477 12.9528 32.6592 12.6883 32.4428 12.3998C32.2264 12.1113 32.0701 11.8047 31.9739 11.4801C31.8897 11.1555 31.8477 10.8249 31.8477 10.4883C31.8477 9.83907 31.9799 9.28004 32.2444 8.81117C32.5209 8.33029 32.8816 7.93356 33.3264 7.62098C33.7712 7.3084 34.2761 7.07998 34.8412 6.93572C35.4062 6.77943 35.9773 6.70128 36.5543 6.70128C37.2276 6.70128 37.8587 6.79145 38.4478 6.97178C39.0489 7.14009 39.5719 7.39857 40.0167 7.74721C40.4736 8.09585 40.8342 8.52865 41.0987 9.04561C41.3632 9.55054 41.4954 10.1396 41.4954 10.8129H39.2413C39.1812 9.98333 38.8987 9.40026 38.3937 9.06364C37.8888 8.715 37.2456 8.54068 36.4642 8.54068C36.1997 8.54068 35.9292 8.57073 35.6527 8.63084C35.3762 8.67893 35.1237 8.7691 34.8953 8.90134C34.6669 9.02156 34.4745 9.18987 34.3182 9.40627C34.174 9.62267 34.1018 9.89317 34.1018 10.2178C34.1018 10.6746 34.2401 11.0353 34.5166 11.2998C34.8051 11.5522 35.1778 11.7446 35.6346 11.8768C35.6827 11.8888 35.8691 11.9429 36.1937 12.0391C36.5303 12.1233 36.903 12.2195 37.3117 12.3277C37.7205 12.4359 38.1172 12.5441 38.5019 12.6523C38.8987 12.7484 39.1812 12.8206 39.3495 12.8687C39.7703 13.0009 40.1369 13.1812 40.4495 13.4097C40.7621 13.6381 41.0206 13.9026 41.225 14.2031C41.4414 14.4916 41.5976 14.8042 41.6938 15.1408C41.802 15.4775 41.8561 15.8141 41.8561 16.1507C41.8561 16.872 41.7058 17.4912 41.4053 18.0081C41.1168 18.5131 40.732 18.9278 40.2512 19.2524C39.7703 19.577 39.2233 19.8115 38.6101 19.9557C37.997 20.112 37.3718 20.1902 36.7347 20.1902C36.0013 20.1902 35.31 20.1 34.6609 19.9197C34.0117 19.7393 33.4466 19.4628 32.9657 19.0901C32.4848 18.7174 32.1001 18.2426 31.8116 17.6655C31.5231 17.0764 31.3728 16.3851 31.3608 15.5917H33.6149Z"
        fill="#1A3ED2" />
      <path
        d="M49.9429 14.4015C49.9189 14.0769 49.8467 13.7643 49.7265 13.4638C49.6183 13.1632 49.462 12.9047 49.2576 12.6883C49.0653 12.4599 48.8248 12.2796 48.5363 12.1473C48.2598 12.0031 47.9472 11.9309 47.5986 11.9309C47.2379 11.9309 46.9073 11.997 46.6068 12.1293C46.3182 12.2495 46.0658 12.4238 45.8494 12.6523C45.645 12.8687 45.4767 13.1271 45.3444 13.4277C45.2242 13.7282 45.1581 14.0528 45.1461 14.4015H49.9429ZM45.1461 15.754C45.1461 16.1146 45.1941 16.4633 45.2903 16.7999C45.3985 17.1365 45.5548 17.4311 45.7592 17.6835C45.9636 17.936 46.222 18.1404 46.5346 18.2967C46.8472 18.4409 47.2199 18.5131 47.6527 18.5131C48.2538 18.5131 48.7347 18.3868 49.0953 18.1344C49.468 17.8699 49.7445 17.4792 49.9249 16.9622H51.8725C51.7643 17.4671 51.5779 17.918 51.3134 18.3147C51.0489 18.7114 50.7304 19.048 50.3577 19.3246C49.985 19.589 49.5642 19.7874 49.0953 19.9197C48.6385 20.0639 48.1576 20.1361 47.6527 20.1361C46.9193 20.1361 46.2701 20.0158 45.7051 19.7754C45.14 19.5349 44.6592 19.1983 44.2624 18.7655C43.8777 18.3327 43.5832 17.8158 43.3788 17.2147C43.1864 16.6136 43.0903 15.9523 43.0903 15.231C43.0903 14.5698 43.1925 13.9446 43.3968 13.3556C43.6132 12.7544 43.9138 12.2315 44.2985 11.7867C44.6952 11.3298 45.1701 10.9692 45.7231 10.7047C46.2761 10.4402 46.9013 10.3079 47.5986 10.3079C48.3319 10.3079 48.9871 10.4642 49.5642 10.7768C50.1533 11.0774 50.6402 11.4801 51.0249 11.985C51.4096 12.49 51.6861 13.073 51.8544 13.7343C52.0348 14.3834 52.0828 15.0567 51.9987 15.754H45.1461Z"
        fill="#1A3ED2" />
      <path
        d="M59.9633 14.4015C59.9393 14.0769 59.8671 13.7643 59.7469 13.4638C59.6387 13.1632 59.4824 12.9047 59.2781 12.6883C59.0857 12.4599 58.8453 12.2796 58.5567 12.1473C58.2802 12.0031 57.9677 11.9309 57.619 11.9309C57.2583 11.9309 56.9277 11.997 56.6272 12.1293C56.3386 12.2495 56.0862 12.4238 55.8698 12.6523C55.6654 12.8687 55.4971 13.1271 55.3648 13.4277C55.2446 13.7282 55.1785 14.0528 55.1665 14.4015H59.9633ZM55.1665 15.754C55.1665 16.1146 55.2146 16.4633 55.3107 16.7999C55.4189 17.1365 55.5752 17.4311 55.7796 17.6835C55.984 17.936 56.2425 18.1404 56.555 18.2967C56.8676 18.4409 57.2403 18.5131 57.6731 18.5131C58.2742 18.5131 58.7551 18.3868 59.1158 18.1344C59.4885 17.8699 59.765 17.4792 59.9453 16.9622H61.8929C61.7847 17.4671 61.5983 17.918 61.3339 18.3147C61.0694 18.7114 60.7508 19.048 60.3781 19.3246C60.0054 19.589 59.5846 19.7874 59.1158 19.9197C58.6589 20.0639 58.178 20.1361 57.6731 20.1361C56.9398 20.1361 56.2906 20.0158 55.7255 19.7754C55.1605 19.5349 54.6796 19.1983 54.2829 18.7655C53.8981 18.3327 53.6036 17.8158 53.3992 17.2147C53.2069 16.6136 53.1107 15.9523 53.1107 15.231C53.1107 14.5698 53.2129 13.9446 53.4173 13.3556C53.6337 12.7544 53.9342 12.2315 54.3189 11.7867C54.7157 11.3298 55.1905 10.9692 55.7435 10.7047C56.2966 10.4402 56.9217 10.3079 57.619 10.3079C58.3524 10.3079 59.0076 10.4642 59.5846 10.7768C60.1737 11.0774 60.6606 11.4801 61.0453 11.985C61.43 12.49 61.7065 13.073 61.8749 13.7343C62.0552 14.3834 62.1033 15.0567 62.0191 15.754H55.1665Z"
        fill="#1A3ED2" />
      <path
        d="M63.6361 7.00785H65.6918V14.3293L69.4067 10.5604H71.9314L68.3608 13.9867L72.274 19.8836H69.7674L66.9181 15.3572L65.6918 16.5474V19.8836H63.6361V7.00785Z"
        fill="#1A3ED2" />
      <path d="M73.5563 7.00785H75.8105V19.8836H73.5563V7.00785Z" fill="#1A3ED2" />
      <path
        d="M78.2868 10.5604H80.2344V11.9309L80.2705 11.967C80.583 11.45 80.9918 11.0473 81.4967 10.7588C82.0016 10.4582 82.5607 10.3079 83.1738 10.3079C84.1957 10.3079 85.0012 10.5724 85.5903 11.1014C86.1794 11.6304 86.4739 12.4238 86.4739 13.4818V19.8836H84.4181V14.0228C84.3941 13.2894 84.2378 12.7605 83.9492 12.4359C83.6607 12.0992 83.2099 11.9309 82.5967 11.9309C82.2481 11.9309 81.9355 11.997 81.659 12.1293C81.3825 12.2495 81.1481 12.4238 80.9557 12.6523C80.7634 12.8687 80.6131 13.1271 80.5049 13.4277C80.3967 13.7282 80.3426 14.0468 80.3426 14.3834V19.8836H78.2868V10.5604Z"
        fill="#1A3ED2" />
      <path
        d="M87.7221 10.5604H89.9583L92.3206 17.7196H92.3567L94.6289 10.5604H96.7568L93.4206 19.8836H91.1124L87.7221 10.5604Z"
        fill="#1A3ED2" />
      <path
        d="M104.395 14.4015C104.371 14.0769 104.299 13.7643 104.178 13.4638C104.07 13.1632 103.914 12.9047 103.71 12.6883C103.517 12.4599 103.277 12.2796 102.988 12.1473C102.712 12.0031 102.399 11.9309 102.051 11.9309C101.69 11.9309 101.359 11.997 101.059 12.1293C100.77 12.2495 100.518 12.4238 100.301 12.6523C100.097 12.8687 99.9286 13.1271 99.7964 13.4277C99.6762 13.7282 99.61 14.0528 99.598 14.4015H104.395ZM99.598 15.754C99.598 16.1146 99.6461 16.4633 99.7423 16.7999C99.8505 17.1365 100.007 17.4311 100.211 17.6835C100.416 17.936 100.674 18.1404 100.987 18.2967C101.299 18.4409 101.672 18.5131 102.105 18.5131C102.706 18.5131 103.187 18.3868 103.547 18.1344C103.92 17.8699 104.196 17.4792 104.377 16.9622H106.324C106.216 17.4671 106.03 17.918 105.765 18.3147C105.501 18.7114 105.182 19.048 104.81 19.3246C104.437 19.589 104.016 19.7874 103.547 19.9197C103.09 20.0639 102.61 20.1361 102.105 20.1361C101.371 20.1361 100.722 20.0158 100.157 19.7754C99.592 19.5349 99.1111 19.1983 98.7144 18.7655C98.3297 18.3327 98.0351 17.8158 97.8308 17.2147C97.6384 16.6136 97.5422 15.9523 97.5422 15.231C97.5422 14.5698 97.6444 13.9446 97.8488 13.3556C98.0652 12.7544 98.3657 12.2315 98.7505 11.7867C99.1472 11.3298 99.6221 10.9692 100.175 10.7047C100.728 10.4402 101.353 10.3079 102.051 10.3079C102.784 10.3079 103.439 10.4642 104.016 10.7768C104.605 11.0774 105.092 11.4801 105.477 11.985C105.862 12.49 106.138 13.073 106.306 13.7343C106.487 14.3834 106.535 15.0567 106.451 15.754H99.598Z"
        fill="#1A3ED2" />
      <path
        d="M109.564 16.8901C109.624 17.4912 109.853 17.912 110.25 18.1524C110.646 18.3928 111.121 18.5131 111.674 18.5131C111.867 18.5131 112.083 18.501 112.323 18.477C112.576 18.4409 112.81 18.3808 113.027 18.2967C113.243 18.2125 113.417 18.0923 113.55 17.936C113.694 17.7677 113.76 17.5513 113.748 17.2868C113.736 17.0223 113.64 16.8059 113.46 16.6376C113.279 16.4693 113.045 16.337 112.756 16.2409C112.48 16.1327 112.161 16.0425 111.8 15.9704C111.44 15.8982 111.073 15.8201 110.7 15.7359C110.316 15.6518 109.943 15.5496 109.582 15.4294C109.234 15.3092 108.915 15.1469 108.627 14.9425C108.35 14.7381 108.128 14.4796 107.959 14.167C107.791 13.8425 107.707 13.4457 107.707 12.9769C107.707 12.4719 107.827 12.0511 108.068 11.7145C108.32 11.3659 108.633 11.0894 109.005 10.885C109.39 10.6686 109.811 10.5183 110.268 10.4342C110.737 10.35 111.181 10.3079 111.602 10.3079C112.083 10.3079 112.54 10.362 112.973 10.4702C113.417 10.5664 113.814 10.7287 114.163 10.9571C114.523 11.1856 114.818 11.4861 115.046 11.8588C115.287 12.2195 115.437 12.6583 115.497 13.1752H113.351C113.255 12.6823 113.027 12.3517 112.666 12.1834C112.317 12.0151 111.915 11.9309 111.458 11.9309C111.314 11.9309 111.139 11.9429 110.935 11.967C110.743 11.991 110.556 12.0391 110.376 12.1113C110.208 12.1714 110.063 12.2675 109.943 12.3998C109.823 12.52 109.763 12.6823 109.763 12.8867C109.763 13.1392 109.847 13.3435 110.015 13.4998C110.196 13.6561 110.424 13.7884 110.7 13.8966C110.989 13.9927 111.314 14.0769 111.674 14.149C112.035 14.2211 112.408 14.2993 112.792 14.3834C113.165 14.4676 113.532 14.5698 113.892 14.69C114.253 14.8102 114.572 14.9725 114.848 15.1769C115.137 15.3813 115.365 15.6398 115.533 15.9523C115.714 16.2649 115.804 16.6496 115.804 17.1065C115.804 17.6595 115.678 18.1284 115.425 18.5131C115.173 18.8978 114.842 19.2103 114.433 19.4508C114.037 19.6912 113.592 19.8656 113.099 19.9738C112.606 20.082 112.119 20.1361 111.638 20.1361C111.049 20.1361 110.502 20.0699 109.997 19.9377C109.504 19.8054 109.071 19.6071 108.699 19.3426C108.338 19.0661 108.05 18.7295 107.833 18.3327C107.629 17.924 107.521 17.4431 107.509 16.8901H109.564Z"
        fill="#1A3ED2" />
      <path
        d="M116.427 10.5604H117.978V7.76524H120.034V10.5604H121.891V12.0932H120.034V17.0704C120.034 17.2868 120.04 17.4731 120.052 17.6294C120.076 17.7857 120.118 17.918 120.178 18.0262C120.25 18.1344 120.352 18.2185 120.484 18.2786C120.617 18.3267 120.797 18.3508 121.025 18.3508C121.17 18.3508 121.314 18.3508 121.458 18.3508C121.603 18.3387 121.747 18.3147 121.891 18.2786V19.8656C121.663 19.8896 121.44 19.9136 121.224 19.9377C121.007 19.9617 120.785 19.9738 120.557 19.9738C120.016 19.9738 119.577 19.9257 119.24 19.8295C118.916 19.7213 118.657 19.571 118.465 19.3787C118.284 19.1743 118.158 18.9218 118.086 18.6213C118.026 18.3207 117.99 17.9781 117.978 17.5934V12.0932H116.427V10.5604Z"
        fill="#1A3ED2" />
    </g>
  </g>
</svg>